<svg width="97" height="32" viewBox="0 0 97 32" fill="none" xmlns="http://www.w3.org/2000/svg">
<path d="M6.43073 8.85635H1.24427V23H6.43073C10.7401 23 13.399 20.3412 13.399 15.9213C13.399 11.5083 10.7401 8.85635 6.43073 8.85635ZM4.573 20.1547V11.7017H6.25808C8.73046 11.7017 10.0633 12.855 10.0633 15.9213C10.0633 18.9945 8.73046 20.1547 6.29952 20.1547H4.573ZM15.3654 8.85635V23H18.6941V8.85635H15.3654ZM27.5952 17.7445H30.4405C30.4059 19.2845 29.3424 20.2652 27.457 20.2652C25.3162 20.2652 24.0593 18.6768 24.0593 15.9075C24.0593 13.1657 25.3783 11.5912 27.4501 11.5912C28.8521 11.5912 29.8051 12.2887 30.1297 13.4627H33.5068C33.1546 10.6519 30.6477 8.66298 27.388 8.66298C23.6242 8.66298 20.6546 11.3287 20.6546 15.9489C20.6546 20.424 23.3963 23.1934 27.4363 23.1934C31.062 23.1934 33.6518 20.9282 33.6518 17.1506V15.2997H27.5952V17.7445ZM42.4194 17.7445H45.2647C45.2302 19.2845 44.1666 20.2652 42.2813 20.2652C40.1404 20.2652 38.8835 18.6768 38.8835 15.9075C38.8835 13.1657 40.2025 11.5912 42.2744 11.5912C43.6763 11.5912 44.6293 12.2887 44.9539 13.4627H48.331C47.9788 10.6519 45.4719 8.66298 42.2122 8.66298C38.4484 8.66298 35.4788 11.3287 35.4788 15.9489C35.4788 20.424 38.2205 23.1934 42.2605 23.1934C45.8862 23.1934 48.476 20.9282 48.476 17.1506V15.2997H42.4194V17.7445ZM50.4826 8.85635V23H53.8113V8.85635H50.4826ZM64.6184 8.85635V17.1506H64.501L58.8311 8.85635H55.9513V23H59.28V14.692H59.3767L65.1088 23H67.9403V8.85635H64.6184ZM76.8334 17.7445H79.6787C79.6442 19.2845 78.5807 20.2652 76.6953 20.2652C74.5544 20.2652 73.2975 18.6768 73.2975 15.9075C73.2975 13.1657 74.6166 11.5912 76.6884 11.5912C78.0904 11.5912 79.0434 12.2887 79.368 13.4627H82.745C82.3928 10.6519 79.8859 8.66298 76.6263 8.66298C72.8625 8.66298 69.8928 11.3287 69.8928 15.9489C69.8928 20.424 72.6345 23.1934 76.6746 23.1934C80.3003 23.1934 82.8901 20.9282 82.8901 17.1506V15.2997H76.8334V17.7445Z" fill="#222222"/>
<path d="M91.2282 11.7415C91.2282 12.4918 91.1128 13.1363 90.8819 13.675C90.651 14.233 90.3528 14.6851 89.9873 15.0314C89.6217 15.3969 89.2081 15.6567 88.7464 15.8106C88.2654 15.9837 87.794 16.0703 87.3323 16.0703L87.3323 15.0603C87.8325 15.0603 88.3039 14.8871 88.7464 14.5408C89.1696 14.2137 89.4197 13.7616 89.4967 13.1844C89.439 13.2037 89.3716 13.2229 89.2947 13.2421C89.237 13.2614 89.1696 13.2806 89.0927 13.2999C88.9965 13.3191 88.8907 13.3287 88.7752 13.3287C88.198 13.3287 87.7171 13.1075 87.3323 12.665C86.9475 12.2417 86.7551 11.7415 86.7551 11.1643C86.7551 10.5871 86.9571 10.0773 87.3611 9.63478C87.7459 9.21152 88.2654 8.99989 88.9195 8.99989C89.6506 8.99989 90.2182 9.26924 90.6222 9.80794C91.0262 10.3659 91.2282 11.0104 91.2282 11.7415ZM97 11.7415C97 12.4918 96.8846 13.1363 96.6537 13.675C96.4228 14.233 96.1246 14.6851 95.7591 15.0314C95.3935 15.3969 94.9799 15.6567 94.5181 15.8106C94.0372 15.9837 93.5658 16.0703 93.1041 16.0703L93.1041 15.0603C93.6043 15.0603 94.0756 14.8871 94.5181 14.5408C94.9414 14.2137 95.1915 13.7616 95.2685 13.1844C95.2108 13.2037 95.1434 13.2229 95.0665 13.2421C95.0087 13.2614 94.9414 13.2806 94.8644 13.2999C94.7682 13.3191 94.6624 13.3287 94.547 13.3287C93.9698 13.3287 93.4888 13.1075 93.1041 12.665C92.7193 12.2417 92.5269 11.7415 92.5269 11.1643C92.5269 10.5871 92.7289 10.0773 93.1329 9.63478C93.5177 9.21152 94.0372 8.99989 94.6913 8.99989C95.4224 8.99989 95.9899 9.26924 96.394 9.80794C96.798 10.3659 97 11.0104 97 11.7415Z" fill="#7BC600"/>
</svg>
