<svg width="15" height="10" viewBox="0 0 15 10" fill="none" xmlns="http://www.w3.org/2000/svg">
<path d="M6.77522 3.87756C6.77522 4.93878 6.61196 5.85034 6.28542 6.61225C5.95889 7.40136 5.53712 8.04082 5.02012 8.53061C4.50311 9.04762 3.91808 9.41497 3.26502 9.63265C2.58475 9.87755 1.91808 10 1.26502 10L1.26502 8.57143C1.9725 8.57143 2.63917 8.32653 3.26502 7.83673C3.86366 7.37415 4.2174 6.7347 4.32624 5.91837C4.24461 5.94558 4.14937 5.97279 4.04053 6C3.9589 6.02721 3.86366 6.05442 3.75481 6.08163C3.61876 6.10885 3.4691 6.12245 3.30584 6.12245C2.48951 6.12245 1.80924 5.80953 1.26502 5.18368C0.720803 4.58504 0.448694 3.87756 0.448694 3.06123C0.448694 2.24491 0.734409 1.52382 1.30584 0.897967C1.85005 0.299329 2.58475 8.45675e-06 3.50992 8.53763e-06C4.54393 8.62802e-06 5.34665 0.380962 5.91808 1.14287C6.48951 1.93198 6.77522 2.84354 6.77522 3.87756ZM14.9385 3.87756C14.9385 4.93878 14.7752 5.85034 14.4487 6.61225C14.1222 7.40136 13.7004 8.04082 13.1834 8.53061C12.6664 9.04762 12.0813 9.41497 11.4283 9.63265C10.748 9.87755 10.0813 10 9.42828 10L9.42828 8.57143C10.1358 8.57143 10.8024 8.32653 11.4283 7.83673C12.0269 7.37415 12.3807 6.7347 12.4895 5.91837C12.4079 5.94558 12.3126 5.97279 12.2038 6C12.1222 6.02722 12.0269 6.05442 11.9181 6.08164C11.782 6.10885 11.6324 6.12245 11.4691 6.12245C10.6528 6.12245 9.97249 5.80953 9.42828 5.18368C8.88406 4.58504 8.61195 3.87756 8.61195 3.06123C8.61195 2.24491 8.89767 1.52382 9.46909 0.897968C10.0133 0.299329 10.748 9.1704e-06 11.6732 9.25128e-06C12.7072 9.34168e-06 13.5099 0.380962 14.0813 1.14287C14.6528 1.93198 14.9385 2.84354 14.9385 3.87756Z" fill="#7BC600"/>
</svg>
