<svg width="24" height="24" viewBox="0 0 24 24" fill="none" xmlns="http://www.w3.org/2000/svg">
<path fill-rule="evenodd" clip-rule="evenodd" d="M15.818 10.1637C17.023 10.1637 17.9999 9.18685 17.9999 7.98187C17.9999 6.77688 17.023 5.80005 15.818 5.80005C14.6131 5.80005 13.6362 6.77688 13.6362 7.98187C13.6362 8.11284 13.6478 8.24112 13.6699 8.36574L9.78688 10.8676C9.38818 10.4348 8.81666 10.1637 8.18182 10.1637C6.97683 10.1637 6 11.1405 6 12.3455C6 13.5505 6.97683 14.5273 8.18182 14.5273C8.81667 14.5273 9.38819 14.2562 9.78689 13.8234L13.6699 16.3253C13.6478 16.4499 13.6362 16.5782 13.6362 16.7091C13.6362 17.9141 14.6131 18.8909 15.818 18.8909C17.023 18.8909 17.9999 17.9141 17.9999 16.7091C17.9999 15.5041 17.023 14.5273 15.818 14.5273C15.1386 14.5273 14.5316 14.8379 14.1315 15.3249L10.3031 12.8582C10.3427 12.6938 10.3636 12.5221 10.3636 12.3455C10.3636 12.1689 10.3427 11.9972 10.3031 11.8328L14.1315 9.36608C14.5316 9.85307 15.1386 10.1637 15.818 10.1637Z" fill="#222222" fill-opacity="0.4"/>
</svg>
