<svg width="24" height="24" viewBox="0 0 24 24" fill="none" xmlns="http://www.w3.org/2000/svg">
<path fill-rule="evenodd" clip-rule="evenodd" d="M15.818 13.8366C17.023 13.8366 17.9999 14.8134 17.9999 16.0184C17.9999 17.2234 17.023 18.2002 15.818 18.2002C14.6131 18.2002 13.6362 17.2234 13.6362 16.0184C13.6362 15.8874 13.6478 15.7591 13.6699 15.6345L9.78688 13.1326C9.38818 13.5654 8.81666 13.8365 8.18182 13.8365C6.97683 13.8365 6 12.8597 6 11.6547C6 10.4497 6.97683 9.47291 8.18182 9.47291C8.81667 9.47291 9.38819 9.74405 9.78689 10.1769L13.6699 7.67498C13.6478 7.55036 13.6362 7.42208 13.6362 7.29111C13.6362 6.08613 14.6131 5.10929 15.818 5.10929C17.023 5.10929 17.9999 6.08613 17.9999 7.29111C17.9999 8.4961 17.023 9.47293 15.818 9.47293C15.1386 9.47293 14.5316 9.16231 14.1315 8.67532L10.3031 11.142C10.3427 11.3065 10.3636 11.4781 10.3636 11.6547C10.3636 11.8313 10.3427 12.003 10.3031 12.1675L14.1315 14.6342C14.5316 14.1472 15.1386 13.8366 15.818 13.8366Z" fill="#222222"/>
</svg>
